<svg width="6" height="11" viewBox="0 0 6 11" fill="none" xmlns="http://www.w3.org/2000/svg">
<path d="M1.08458 10.4583C0.919077 10.4586 0.758684 10.401 0.631247 10.2954C0.559522 10.2359 0.500233 10.1629 0.456775 10.0805C0.413318 9.99808 0.386545 9.9079 0.377992 9.81513C0.369438 9.72235 0.379271 9.6288 0.406927 9.53983C0.434584 9.45086 0.47952 9.36822 0.539163 9.29665L3.7125 5.49998L0.652497 1.69623C0.593659 1.62377 0.549719 1.54041 0.523205 1.45092C0.496691 1.36143 0.488125 1.26758 0.497998 1.17477C0.507872 1.08195 0.53599 0.992009 0.580739 0.910099C0.625487 0.82819 0.685982 0.755932 0.758747 0.697478C0.832035 0.632994 0.917861 0.584355 1.01084 0.554612C1.10382 0.52487 1.20194 0.514667 1.29905 0.524644C1.39615 0.534621 1.49015 0.564562 1.57514 0.612588C1.66013 0.660615 1.73427 0.725689 1.79291 0.803728L5.21416 5.05373C5.31835 5.18047 5.3753 5.33945 5.3753 5.50352C5.3753 5.66759 5.31835 5.82657 5.21416 5.95331L1.6725 10.2033C1.60144 10.289 1.51117 10.3568 1.40902 10.4011C1.30688 10.4454 1.19572 10.465 1.08458 10.4583Z" fill="#333333"/>
</svg>
