<svg width="21" height="21" viewBox="0 0 21 21" fill="none" xmlns="http://www.w3.org/2000/svg">
<path d="M16.7096 16.75C17.2622 16.75 17.7921 16.9695 18.1828 17.3602C18.5735 17.7509 18.793 18.2808 18.793 18.8334C18.793 19.3859 18.5735 19.9158 18.1828 20.3065C17.7921 20.6972 17.2622 20.9167 16.7096 20.9167C16.1571 20.9167 15.6272 20.6972 15.2365 20.3065C14.8458 19.9158 14.6263 19.3859 14.6263 18.8334C14.6263 17.6771 15.5534 16.75 16.7096 16.75ZM0.0429688 0.083374H3.44922L4.42839 2.16671H19.8346C20.1109 2.16671 20.3759 2.27645 20.5712 2.4718C20.7666 2.66716 20.8763 2.93211 20.8763 3.20837C20.8763 3.38546 20.8242 3.56254 20.7513 3.72921L17.0221 10.4688C16.668 11.1042 15.9805 11.5417 15.1992 11.5417H7.4388L6.5013 13.2396L6.47005 13.3646C6.47005 13.4337 6.49749 13.4999 6.54633 13.5488C6.59516 13.5976 6.6614 13.625 6.73047 13.625H18.793V15.7084H6.29297C5.74043 15.7084 5.21053 15.4889 4.81983 15.0982C4.42913 14.7075 4.20964 14.1776 4.20964 13.625C4.20964 13.2605 4.30338 12.9167 4.45963 12.625L5.8763 10.073L2.1263 2.16671H0.0429688V0.083374ZM6.29297 16.75C6.8455 16.75 7.37541 16.9695 7.76611 17.3602C8.15681 17.7509 8.3763 18.2808 8.3763 18.8334C8.3763 19.3859 8.15681 19.9158 7.76611 20.3065C7.37541 20.6972 6.8455 20.9167 6.29297 20.9167C5.74043 20.9167 5.21053 20.6972 4.81983 20.3065C4.42913 19.9158 4.20964 19.3859 4.20964 18.8334C4.20964 17.6771 5.13672 16.75 6.29297 16.75ZM15.668 9.45837L18.5638 4.25004H5.39714L7.85547 9.45837H15.668Z" fill="#301446"/>
</svg>
